<svg width="20" height="20" viewBox="0 0 20 20" fill="none" xmlns="http://www.w3.org/2000/svg">
<path d="M6 6.53846V5.15385C6 4.05218 6.42143 2.99563 7.17157 2.21663C7.92172 1.43764 8.93913 1 10 1C11.0609 1 12.0783 1.43764 12.8284 2.21663C13.5786 2.99563 14 4.05218 14 5.15385V6.53846M2.66667 6.53846C2.48986 6.53846 2.32029 6.6114 2.19526 6.74123C2.07024 6.87107 2 7.04716 2 7.23077V16.5769C2 17.8854 3.07333 19 4.33333 19H15.6667C16.9267 19 18 17.9395 18 16.631V7.23077C18 7.04716 17.9298 6.87107 17.8047 6.74123C17.6797 6.6114 17.5101 6.53846 17.3333 6.53846H2.66667Z" stroke="#2E1808" stroke-width="1.5" stroke-linecap="round" stroke-linejoin="round"/>
</svg>
