<svg width="20" height="20" viewBox="0 0 20 20" fill="none" xmlns="http://www.w3.org/2000/svg">
<path d="M2.38074 3.43606C1.94299 3.89121 1.59575 4.43155 1.35884 5.02623C1.12194 5.62092 1 6.2583 1 6.90198C1 7.54566 1.12194 8.18304 1.35884 8.77773C1.59575 9.37241 1.94299 9.91275 2.38074 10.3679L9.52367 17.7948C9.58621 17.8599 9.66046 17.9115 9.74219 17.9467C9.82391 17.9819 9.9115 18 9.99997 18C10.0884 18 10.176 17.9819 10.2577 17.9467C10.3395 17.9115 10.4137 17.8599 10.4763 17.7948L17.6192 10.3679C18.5033 9.44864 19 8.20184 19 6.9018C19 5.60177 18.5033 4.35497 17.6192 3.43571C16.7351 2.51644 15.536 2 14.2856 2C13.0353 2 11.8362 2.51644 10.9521 3.43571L10.2325 4.18424C10.2019 4.21602 10.1657 4.24123 10.1257 4.25843C10.0858 4.27563 10.043 4.28448 9.9998 4.28448C9.95658 4.28448 9.91379 4.27563 9.87387 4.25843C9.83394 4.24123 9.79767 4.21602 9.76712 4.18424L9.04754 3.43606C8.60979 2.9809 8.09011 2.61986 7.51816 2.37353C6.94622 2.1272 6.33321 2.00042 5.71414 2.00042C5.09507 2.00042 4.48206 2.1272 3.91012 2.37353C3.33817 2.61986 2.81849 2.9809 2.38074 3.43606Z" stroke="#2E1808" stroke-width="1.5" stroke-linecap="round" stroke-linejoin="round"/>
</svg>
