<svg width="21" height="20" viewBox="0 0 21 20" fill="none" xmlns="http://www.w3.org/2000/svg">
<path d="M1.65916 3.05797C1.17277 3.53938 0.786945 4.11089 0.523714 4.73989C0.260483 5.36888 0.125 6.04303 0.125 6.72385C0.125 7.40467 0.260483 8.07882 0.523714 8.70781C0.786945 9.3368 1.17277 9.90832 1.65916 10.3897L9.59574 18.2451C9.66523 18.3139 9.74773 18.3685 9.83854 18.4057C9.92934 18.443 10.0267 18.4621 10.125 18.4621C10.2233 18.4621 10.3206 18.443 10.4114 18.4057C10.5022 18.3685 10.5847 18.3139 10.6542 18.2451L18.5908 10.3897C19.5731 9.41743 20.125 8.09871 20.125 6.72366C20.125 5.34862 19.5731 4.0299 18.5908 3.0576C17.6084 2.0853 16.2761 1.53906 14.8868 1.53906C13.4975 1.53906 12.1652 2.0853 11.1828 3.0576L10.3833 3.84932C10.3494 3.88293 10.3091 3.9096 10.2647 3.92779C10.2203 3.94598 10.1728 3.95534 10.1248 3.95534C10.0768 3.95534 10.0292 3.94598 9.98485 3.92779C9.94049 3.9096 9.90019 3.88293 9.86625 3.84932L9.06671 3.05797C8.58033 2.57656 8.0029 2.19468 7.3674 1.93414C6.73191 1.6736 6.05079 1.53951 5.36293 1.53951C4.67508 1.53951 3.99396 1.6736 3.35846 1.93414C2.72297 2.19468 2.14554 2.57656 1.65916 3.05797Z" fill="#2E1808" fill-opacity="0.25" stroke="white" stroke-width="0.25" stroke-linecap="round" stroke-linejoin="round"/>
</svg>
