<svg xmlns="http://www.w3.org/2000/svg" width="20" height="20" fill="currentColor" viewBox="0 0 20 20">
  <g clip-path="url(#a)">
    <path d="M2.376 2.273a8.108 8.108 0 0 0 0 11.466 8.114 8.114 0 0 0 11.474 0 8.104 8.104 0 0 0-.099-11.364 8.115 8.115 0 0 0-11.371-.1m10.325 10.32a6.488 6.488 0 0 1-7.107 1.463 6.49 6.49 0 0 1-4.023-6.035 6.482 6.482 0 0 1 1.953-4.6 6.492 6.492 0 0 1 11.027 4.6 6.484 6.484 0 0 1-1.85 4.572Z"/>
    <path d="M12.389 14.918a1.62 1.62 0 0 1 1.148-2.768c.43 0 .843.172 1.148.476l4.588 4.587a1.624 1.624 0 0 1 .374 1.78 1.622 1.622 0 0 1-2.668.513l-4.59-4.588Z"/>
  </g>
  <defs>
    <clipPath id="a">
      <path d="M0 0h20v20H0z"/>
    </clipPath>
  </defs>
</svg>
